# xmcd CD database file
#
# Track frame offsets:
#	150
#	12232
#	25087
#	50077
#	60317
#	70672
#	80607
#	90492
#	100465
#	109757
#	123582
#	134490
#	146052
#	155580
#	166687
#	178840
#	191125
#	207952
#	221680
#	235287
#	245857
#
# Disc length: 3438 seconds
#
# Revision: 1
# Processed by: cddbd v1.5.2PL0 Copyright (c) Steve Scherf et al.
# Submitted via: CDex 1.51
#
DISCID=350d6c15
DTITLE=Johnny Winter - Johnny Winter Story 1959-1967
DYEAR=1900
DGENRE=Blues
TTITLE0=Parchman Farm (1st Version)
TTITLE1=Leaving Blues
TTITLE2=Going Down Slow
TTITLE3=Night Ride
TTITLE4=One Night Of Love
TTITLE5=Hey Hey Hey Hey
TTITLE6=Creepie
TTITLE7=Oh My Darling
TTITLE8=Road Runner
TTITLE9=Ease My Pain
TTITLE10=Gangster Of Love
TTITLE11=The Guy You Left Behind
TTITLE12=Reeling And Rocking
TTITLE13=Gone For Bad
TTITLE14=Please Come Home For Christmas
TTITLE15=My World Turns Around Her
TTITLE16=Kind Hearted Woman
TTITLE17=Thirty-Eight, Thirty-Two, Twenty
TTITLE18=Tramp
TTITLE19=Parchman Farm (2nd Version)
TTITLE20=Kiss Tomorrow Goodbye
EXTD=
EXTT0=
EXTT1=
EXTT2=
EXTT3=
EXTT4=
EXTT5=
EXTT6=
EXTT7=
EXTT8=
EXTT9=
EXTT10=
EXTT11=
EXTT12=
EXTT13=
EXTT14=
EXTT15=
EXTT16=
EXTT17=
EXTT18=
EXTT19=
EXTT20=
PLAYORDER=
